<mxfile host="Electron" modified="2024-04-05T10:35:10.704Z" agent="Mozilla/5.0 (Windows NT 10.0; Win64; x64) AppleWebKit/537.36 (KHTML, like Gecko) draw.io/24.1.0 Chrome/120.0.6099.109 Electron/28.1.0 Safari/537.36" etag="PP4lSchCypBH3oZw3uoH" version="24.1.0" type="device">
  <diagram name="Page-1" id="G7vU5Jk2aDGEku781TAH">
    <mxGraphModel dx="989" dy="659" grid="1" gridSize="10" guides="1" tooltips="1" connect="1" arrows="1" fold="1" page="1" pageScale="1" pageWidth="850" pageHeight="1100" math="0" shadow="0">
      <root>
        <mxCell id="0" />
        <mxCell id="1" parent="0" />
        <mxCell id="Tn-plqf3XHTxCnsARwkG-59" value="" style="group;fontSize=8;" vertex="1" connectable="0" parent="1">
          <mxGeometry x="30" y="10" width="480" height="520" as="geometry" />
        </mxCell>
        <mxCell id="Tn-plqf3XHTxCnsARwkG-3" style="edgeStyle=orthogonalEdgeStyle;rounded=0;orthogonalLoop=1;jettySize=auto;html=1;entryX=0;entryY=0.5;entryDx=0;entryDy=0;fontSize=8;" edge="1" parent="Tn-plqf3XHTxCnsARwkG-59" source="Tn-plqf3XHTxCnsARwkG-1" target="Tn-plqf3XHTxCnsARwkG-2">
          <mxGeometry relative="1" as="geometry">
            <Array as="points">
              <mxPoint x="19.972260748959773" y="27.499999999999993" />
            </Array>
          </mxGeometry>
        </mxCell>
        <mxCell id="Tn-plqf3XHTxCnsARwkG-1" value="experiments" style="text;html=1;align=center;verticalAlign=middle;whiteSpace=wrap;rounded=0;fontSize=8;" vertex="1" parent="Tn-plqf3XHTxCnsARwkG-59">
          <mxGeometry width="39.944521497919546" height="14.999999999999998" as="geometry" />
        </mxCell>
        <mxCell id="Tn-plqf3XHTxCnsARwkG-9" style="edgeStyle=orthogonalEdgeStyle;rounded=0;orthogonalLoop=1;jettySize=auto;html=1;entryX=0;entryY=0.5;entryDx=0;entryDy=0;fontSize=8;" edge="1" parent="Tn-plqf3XHTxCnsARwkG-59" source="Tn-plqf3XHTxCnsARwkG-2" target="Tn-plqf3XHTxCnsARwkG-4">
          <mxGeometry relative="1" as="geometry">
            <Array as="points">
              <mxPoint x="79.88904299583909" y="52.49999999999999" />
            </Array>
          </mxGeometry>
        </mxCell>
        <mxCell id="Tn-plqf3XHTxCnsARwkG-38" style="edgeStyle=orthogonalEdgeStyle;rounded=0;orthogonalLoop=1;jettySize=auto;html=1;entryX=0;entryY=0.5;entryDx=0;entryDy=0;fontSize=8;" edge="1" parent="Tn-plqf3XHTxCnsARwkG-59" source="Tn-plqf3XHTxCnsARwkG-2" target="Tn-plqf3XHTxCnsARwkG-30">
          <mxGeometry relative="1" as="geometry">
            <Array as="points">
              <mxPoint x="79.88904299583909" y="171.49999999999997" />
            </Array>
          </mxGeometry>
        </mxCell>
        <mxCell id="Tn-plqf3XHTxCnsARwkG-48" style="edgeStyle=orthogonalEdgeStyle;rounded=0;orthogonalLoop=1;jettySize=auto;html=1;entryX=0;entryY=0.5;entryDx=0;entryDy=0;fontSize=8;" edge="1" parent="Tn-plqf3XHTxCnsARwkG-59" source="Tn-plqf3XHTxCnsARwkG-2" target="Tn-plqf3XHTxCnsARwkG-40">
          <mxGeometry relative="1" as="geometry">
            <Array as="points">
              <mxPoint x="79.88904299583909" y="292.49999999999994" />
            </Array>
          </mxGeometry>
        </mxCell>
        <mxCell id="Tn-plqf3XHTxCnsARwkG-58" style="edgeStyle=orthogonalEdgeStyle;rounded=0;orthogonalLoop=1;jettySize=auto;html=1;entryX=0;entryY=0.5;entryDx=0;entryDy=0;fontSize=8;" edge="1" parent="Tn-plqf3XHTxCnsARwkG-59" source="Tn-plqf3XHTxCnsARwkG-2" target="Tn-plqf3XHTxCnsARwkG-50">
          <mxGeometry relative="1" as="geometry">
            <Array as="points">
              <mxPoint x="79.88904299583909" y="412.49999999999994" />
            </Array>
          </mxGeometry>
        </mxCell>
        <mxCell id="Tn-plqf3XHTxCnsARwkG-2" value="seed 1: 451" style="text;html=1;align=center;verticalAlign=middle;whiteSpace=wrap;rounded=0;fontSize=8;" vertex="1" parent="Tn-plqf3XHTxCnsARwkG-59">
          <mxGeometry x="53.25936199722606" y="19.999999999999996" width="53.25936199722606" height="14.999999999999998" as="geometry" />
        </mxCell>
        <mxCell id="Tn-plqf3XHTxCnsARwkG-11" style="edgeStyle=orthogonalEdgeStyle;rounded=0;orthogonalLoop=1;jettySize=auto;html=1;entryX=0;entryY=0.5;entryDx=0;entryDy=0;fontSize=8;" edge="1" parent="Tn-plqf3XHTxCnsARwkG-59" source="Tn-plqf3XHTxCnsARwkG-4" target="Tn-plqf3XHTxCnsARwkG-5">
          <mxGeometry relative="1" as="geometry">
            <Array as="points">
              <mxPoint x="146.4632454923717" y="77.5" />
            </Array>
          </mxGeometry>
        </mxCell>
        <mxCell id="Tn-plqf3XHTxCnsARwkG-4" value="segment count: 5" style="text;html=1;align=center;verticalAlign=middle;whiteSpace=wrap;rounded=0;fontSize=8;" vertex="1" parent="Tn-plqf3XHTxCnsARwkG-59">
          <mxGeometry x="113.17614424410539" y="44.99999999999999" width="66.57420249653259" height="14.999999999999998" as="geometry" />
        </mxCell>
        <mxCell id="Tn-plqf3XHTxCnsARwkG-13" style="edgeStyle=orthogonalEdgeStyle;rounded=0;orthogonalLoop=1;jettySize=auto;html=1;entryX=0;entryY=0.5;entryDx=0;entryDy=0;fontSize=8;" edge="1" parent="Tn-plqf3XHTxCnsARwkG-59" source="Tn-plqf3XHTxCnsARwkG-5" target="Tn-plqf3XHTxCnsARwkG-12">
          <mxGeometry relative="1" as="geometry">
            <Array as="points">
              <mxPoint x="213.03744798890423" y="102.5" />
            </Array>
          </mxGeometry>
        </mxCell>
        <mxCell id="Tn-plqf3XHTxCnsARwkG-16" style="edgeStyle=orthogonalEdgeStyle;rounded=0;orthogonalLoop=1;jettySize=auto;html=1;entryX=0;entryY=0.5;entryDx=0;entryDy=0;fontSize=8;" edge="1" parent="Tn-plqf3XHTxCnsARwkG-59" source="Tn-plqf3XHTxCnsARwkG-5" target="Tn-plqf3XHTxCnsARwkG-14">
          <mxGeometry relative="1" as="geometry">
            <Array as="points">
              <mxPoint x="213.03744798890423" y="127.5" />
            </Array>
          </mxGeometry>
        </mxCell>
        <mxCell id="Tn-plqf3XHTxCnsARwkG-17" style="edgeStyle=orthogonalEdgeStyle;rounded=0;orthogonalLoop=1;jettySize=auto;html=1;entryX=0;entryY=0.5;entryDx=0;entryDy=0;fontSize=8;" edge="1" parent="Tn-plqf3XHTxCnsARwkG-59" source="Tn-plqf3XHTxCnsARwkG-5" target="Tn-plqf3XHTxCnsARwkG-15">
          <mxGeometry relative="1" as="geometry">
            <Array as="points">
              <mxPoint x="213.03744798890423" y="152.49999999999997" />
            </Array>
          </mxGeometry>
        </mxCell>
        <mxCell id="Tn-plqf3XHTxCnsARwkG-5" value="start step: 0.5" style="text;html=1;align=center;verticalAlign=middle;whiteSpace=wrap;rounded=0;fontSize=8;" vertex="1" parent="Tn-plqf3XHTxCnsARwkG-59">
          <mxGeometry x="186.40776699029124" y="69.99999999999999" width="53.25936199722606" height="14.999999999999998" as="geometry" />
        </mxCell>
        <mxCell id="Tn-plqf3XHTxCnsARwkG-12" value="min step: 0.1; failed attempt count: 100; step coefficient: 0.9&amp;nbsp;" style="text;html=1;align=center;verticalAlign=middle;whiteSpace=wrap;rounded=0;fontSize=8;" vertex="1" parent="Tn-plqf3XHTxCnsARwkG-59">
          <mxGeometry x="252.98196948682383" y="94.99999999999999" width="219.69486823855752" height="14.999999999999998" as="geometry" />
        </mxCell>
        <mxCell id="Tn-plqf3XHTxCnsARwkG-14" value="min step: 0.01; failed attempt count: 100; step coefficient: 0.9" style="text;html=1;align=center;verticalAlign=middle;whiteSpace=wrap;rounded=0;fontSize=8;" vertex="1" parent="Tn-plqf3XHTxCnsARwkG-59">
          <mxGeometry x="252.98196948682383" y="119.99999999999999" width="219.69486823855752" height="14.999999999999998" as="geometry" />
        </mxCell>
        <mxCell id="Tn-plqf3XHTxCnsARwkG-15" value="min step: 0.001; failed attempt count: 100; step coefficient: 0.9" style="text;html=1;align=center;verticalAlign=middle;whiteSpace=wrap;rounded=0;fontSize=8;" vertex="1" parent="Tn-plqf3XHTxCnsARwkG-59">
          <mxGeometry x="252.98196948682383" y="144.99999999999997" width="226.35228848821077" height="14.999999999999998" as="geometry" />
        </mxCell>
        <mxCell id="Tn-plqf3XHTxCnsARwkG-29" style="edgeStyle=orthogonalEdgeStyle;rounded=0;orthogonalLoop=1;jettySize=auto;html=1;entryX=0;entryY=0.5;entryDx=0;entryDy=0;fontSize=8;" edge="1" parent="Tn-plqf3XHTxCnsARwkG-59" source="Tn-plqf3XHTxCnsARwkG-30" target="Tn-plqf3XHTxCnsARwkG-34">
          <mxGeometry relative="1" as="geometry">
            <Array as="points">
              <mxPoint x="147.128987517337" y="196.49999999999997" />
            </Array>
          </mxGeometry>
        </mxCell>
        <mxCell id="Tn-plqf3XHTxCnsARwkG-30" value="segment count: 10" style="text;html=1;align=center;verticalAlign=middle;whiteSpace=wrap;rounded=0;fontSize=8;" vertex="1" parent="Tn-plqf3XHTxCnsARwkG-59">
          <mxGeometry x="113.84188626907073" y="164" width="72.56588072122052" height="14.999999999999998" as="geometry" />
        </mxCell>
        <mxCell id="Tn-plqf3XHTxCnsARwkG-31" style="edgeStyle=orthogonalEdgeStyle;rounded=0;orthogonalLoop=1;jettySize=auto;html=1;entryX=0;entryY=0.5;entryDx=0;entryDy=0;fontSize=8;" edge="1" parent="Tn-plqf3XHTxCnsARwkG-59" source="Tn-plqf3XHTxCnsARwkG-34" target="Tn-plqf3XHTxCnsARwkG-35">
          <mxGeometry relative="1" as="geometry">
            <Array as="points">
              <mxPoint x="213.7031900138696" y="221.49999999999997" />
            </Array>
          </mxGeometry>
        </mxCell>
        <mxCell id="Tn-plqf3XHTxCnsARwkG-32" style="edgeStyle=orthogonalEdgeStyle;rounded=0;orthogonalLoop=1;jettySize=auto;html=1;entryX=0;entryY=0.5;entryDx=0;entryDy=0;fontSize=8;" edge="1" parent="Tn-plqf3XHTxCnsARwkG-59" source="Tn-plqf3XHTxCnsARwkG-34" target="Tn-plqf3XHTxCnsARwkG-36">
          <mxGeometry relative="1" as="geometry">
            <Array as="points">
              <mxPoint x="213.7031900138696" y="246.49999999999997" />
            </Array>
          </mxGeometry>
        </mxCell>
        <mxCell id="Tn-plqf3XHTxCnsARwkG-33" style="edgeStyle=orthogonalEdgeStyle;rounded=0;orthogonalLoop=1;jettySize=auto;html=1;entryX=0;entryY=0.5;entryDx=0;entryDy=0;fontSize=8;" edge="1" parent="Tn-plqf3XHTxCnsARwkG-59" source="Tn-plqf3XHTxCnsARwkG-34" target="Tn-plqf3XHTxCnsARwkG-37">
          <mxGeometry relative="1" as="geometry">
            <Array as="points">
              <mxPoint x="213.7031900138696" y="271.49999999999994" />
            </Array>
          </mxGeometry>
        </mxCell>
        <mxCell id="Tn-plqf3XHTxCnsARwkG-34" value="start step: 0.5" style="text;html=1;align=center;verticalAlign=middle;whiteSpace=wrap;rounded=0;fontSize=8;" vertex="1" parent="Tn-plqf3XHTxCnsARwkG-59">
          <mxGeometry x="187.07350901525655" y="188.99999999999997" width="53.25936199722606" height="14.999999999999998" as="geometry" />
        </mxCell>
        <mxCell id="Tn-plqf3XHTxCnsARwkG-35" value="min step: 0.1; failed attempt count: 100; step coefficient: 0.9&amp;nbsp;" style="text;html=1;align=center;verticalAlign=middle;whiteSpace=wrap;rounded=0;fontSize=8;" vertex="1" parent="Tn-plqf3XHTxCnsARwkG-59">
          <mxGeometry x="253.64771151178914" y="213.99999999999997" width="219.69486823855752" height="14.999999999999998" as="geometry" />
        </mxCell>
        <mxCell id="Tn-plqf3XHTxCnsARwkG-36" value="min step: 0.01; failed attempt count: 100; step coefficient: 0.9" style="text;html=1;align=center;verticalAlign=middle;whiteSpace=wrap;rounded=0;fontSize=8;" vertex="1" parent="Tn-plqf3XHTxCnsARwkG-59">
          <mxGeometry x="253.64771151178914" y="238.99999999999994" width="219.69486823855752" height="14.999999999999998" as="geometry" />
        </mxCell>
        <mxCell id="Tn-plqf3XHTxCnsARwkG-37" value="min step: 0.001; failed attempt count: 100; step coefficient: 0.9" style="text;html=1;align=center;verticalAlign=middle;whiteSpace=wrap;rounded=0;fontSize=8;" vertex="1" parent="Tn-plqf3XHTxCnsARwkG-59">
          <mxGeometry x="253.64771151178914" y="263.99999999999994" width="226.35228848821077" height="14.999999999999998" as="geometry" />
        </mxCell>
        <mxCell id="Tn-plqf3XHTxCnsARwkG-39" style="edgeStyle=orthogonalEdgeStyle;rounded=0;orthogonalLoop=1;jettySize=auto;html=1;entryX=0;entryY=0.5;entryDx=0;entryDy=0;fontSize=8;" edge="1" parent="Tn-plqf3XHTxCnsARwkG-59" source="Tn-plqf3XHTxCnsARwkG-40" target="Tn-plqf3XHTxCnsARwkG-44">
          <mxGeometry relative="1" as="geometry">
            <Array as="points">
              <mxPoint x="147.128987517337" y="317.5" />
            </Array>
          </mxGeometry>
        </mxCell>
        <mxCell id="Tn-plqf3XHTxCnsARwkG-40" value="segment count: 16" style="text;html=1;align=center;verticalAlign=middle;whiteSpace=wrap;rounded=0;fontSize=8;" vertex="1" parent="Tn-plqf3XHTxCnsARwkG-59">
          <mxGeometry x="113.84188626907073" y="284.99999999999994" width="72.56588072122052" height="14.999999999999998" as="geometry" />
        </mxCell>
        <mxCell id="Tn-plqf3XHTxCnsARwkG-41" style="edgeStyle=orthogonalEdgeStyle;rounded=0;orthogonalLoop=1;jettySize=auto;html=1;entryX=0;entryY=0.5;entryDx=0;entryDy=0;fontSize=8;" edge="1" parent="Tn-plqf3XHTxCnsARwkG-59" source="Tn-plqf3XHTxCnsARwkG-44" target="Tn-plqf3XHTxCnsARwkG-45">
          <mxGeometry relative="1" as="geometry">
            <Array as="points">
              <mxPoint x="213.7031900138696" y="342.5" />
            </Array>
          </mxGeometry>
        </mxCell>
        <mxCell id="Tn-plqf3XHTxCnsARwkG-42" style="edgeStyle=orthogonalEdgeStyle;rounded=0;orthogonalLoop=1;jettySize=auto;html=1;entryX=0;entryY=0.5;entryDx=0;entryDy=0;fontSize=8;" edge="1" parent="Tn-plqf3XHTxCnsARwkG-59" source="Tn-plqf3XHTxCnsARwkG-44" target="Tn-plqf3XHTxCnsARwkG-46">
          <mxGeometry relative="1" as="geometry">
            <Array as="points">
              <mxPoint x="213.7031900138696" y="367.49999999999994" />
            </Array>
          </mxGeometry>
        </mxCell>
        <mxCell id="Tn-plqf3XHTxCnsARwkG-43" style="edgeStyle=orthogonalEdgeStyle;rounded=0;orthogonalLoop=1;jettySize=auto;html=1;entryX=0;entryY=0.5;entryDx=0;entryDy=0;fontSize=8;" edge="1" parent="Tn-plqf3XHTxCnsARwkG-59" source="Tn-plqf3XHTxCnsARwkG-44" target="Tn-plqf3XHTxCnsARwkG-47">
          <mxGeometry relative="1" as="geometry">
            <Array as="points">
              <mxPoint x="213.7031900138696" y="392.49999999999994" />
            </Array>
          </mxGeometry>
        </mxCell>
        <mxCell id="Tn-plqf3XHTxCnsARwkG-44" value="start step: 0.5" style="text;html=1;align=center;verticalAlign=middle;whiteSpace=wrap;rounded=0;fontSize=8;" vertex="1" parent="Tn-plqf3XHTxCnsARwkG-59">
          <mxGeometry x="187.07350901525655" y="310" width="53.25936199722606" height="14.999999999999998" as="geometry" />
        </mxCell>
        <mxCell id="Tn-plqf3XHTxCnsARwkG-45" value="min step: 0.1; failed attempt count: 100; step coefficient: 0.9&amp;nbsp;" style="text;html=1;align=center;verticalAlign=middle;whiteSpace=wrap;rounded=0;fontSize=8;" vertex="1" parent="Tn-plqf3XHTxCnsARwkG-59">
          <mxGeometry x="253.64771151178914" y="334.99999999999994" width="219.69486823855752" height="14.999999999999998" as="geometry" />
        </mxCell>
        <mxCell id="Tn-plqf3XHTxCnsARwkG-46" value="min step: 0.01; failed attempt count: 100; step coefficient: 0.9" style="text;html=1;align=center;verticalAlign=middle;whiteSpace=wrap;rounded=0;fontSize=8;" vertex="1" parent="Tn-plqf3XHTxCnsARwkG-59">
          <mxGeometry x="253.64771151178914" y="359.99999999999994" width="219.69486823855752" height="14.999999999999998" as="geometry" />
        </mxCell>
        <mxCell id="Tn-plqf3XHTxCnsARwkG-47" value="min step: 0.001; failed attempt count: 100; step coefficient: 0.9" style="text;html=1;align=center;verticalAlign=middle;whiteSpace=wrap;rounded=0;fontSize=8;" vertex="1" parent="Tn-plqf3XHTxCnsARwkG-59">
          <mxGeometry x="253.64771151178914" y="384.99999999999994" width="226.35228848821077" height="14.999999999999998" as="geometry" />
        </mxCell>
        <mxCell id="Tn-plqf3XHTxCnsARwkG-49" style="edgeStyle=orthogonalEdgeStyle;rounded=0;orthogonalLoop=1;jettySize=auto;html=1;entryX=0;entryY=0.5;entryDx=0;entryDy=0;fontSize=8;" edge="1" parent="Tn-plqf3XHTxCnsARwkG-59" source="Tn-plqf3XHTxCnsARwkG-50" target="Tn-plqf3XHTxCnsARwkG-54">
          <mxGeometry relative="1" as="geometry">
            <Array as="points">
              <mxPoint x="146.4632454923717" y="437.5" />
            </Array>
          </mxGeometry>
        </mxCell>
        <mxCell id="Tn-plqf3XHTxCnsARwkG-50" value="segment count: 32" style="text;html=1;align=center;verticalAlign=middle;whiteSpace=wrap;rounded=0;fontSize=8;" vertex="1" parent="Tn-plqf3XHTxCnsARwkG-59">
          <mxGeometry x="113.17614424410539" y="405" width="72.56588072122052" height="14.999999999999998" as="geometry" />
        </mxCell>
        <mxCell id="Tn-plqf3XHTxCnsARwkG-51" style="edgeStyle=orthogonalEdgeStyle;rounded=0;orthogonalLoop=1;jettySize=auto;html=1;entryX=0;entryY=0.5;entryDx=0;entryDy=0;fontSize=8;" edge="1" parent="Tn-plqf3XHTxCnsARwkG-59" source="Tn-plqf3XHTxCnsARwkG-54" target="Tn-plqf3XHTxCnsARwkG-55">
          <mxGeometry relative="1" as="geometry">
            <Array as="points">
              <mxPoint x="213.03744798890423" y="462.4999999999999" />
            </Array>
          </mxGeometry>
        </mxCell>
        <mxCell id="Tn-plqf3XHTxCnsARwkG-52" style="edgeStyle=orthogonalEdgeStyle;rounded=0;orthogonalLoop=1;jettySize=auto;html=1;entryX=0;entryY=0.5;entryDx=0;entryDy=0;fontSize=8;" edge="1" parent="Tn-plqf3XHTxCnsARwkG-59" source="Tn-plqf3XHTxCnsARwkG-54" target="Tn-plqf3XHTxCnsARwkG-56">
          <mxGeometry relative="1" as="geometry">
            <Array as="points">
              <mxPoint x="213.03744798890423" y="487.5" />
            </Array>
          </mxGeometry>
        </mxCell>
        <mxCell id="Tn-plqf3XHTxCnsARwkG-53" style="edgeStyle=orthogonalEdgeStyle;rounded=0;orthogonalLoop=1;jettySize=auto;html=1;entryX=0;entryY=0.5;entryDx=0;entryDy=0;fontSize=8;" edge="1" parent="Tn-plqf3XHTxCnsARwkG-59" source="Tn-plqf3XHTxCnsARwkG-54" target="Tn-plqf3XHTxCnsARwkG-57">
          <mxGeometry relative="1" as="geometry">
            <Array as="points">
              <mxPoint x="213.03744798890423" y="512.4999999999999" />
            </Array>
          </mxGeometry>
        </mxCell>
        <mxCell id="Tn-plqf3XHTxCnsARwkG-54" value="start step: 0.5" style="text;html=1;align=center;verticalAlign=middle;whiteSpace=wrap;rounded=0;fontSize=8;" vertex="1" parent="Tn-plqf3XHTxCnsARwkG-59">
          <mxGeometry x="186.40776699029124" y="429.99999999999994" width="53.25936199722606" height="14.999999999999998" as="geometry" />
        </mxCell>
        <mxCell id="Tn-plqf3XHTxCnsARwkG-55" value="min step: 0.1; failed attempt count: 100; step coefficient: 0.9&amp;nbsp;" style="text;html=1;align=center;verticalAlign=middle;whiteSpace=wrap;rounded=0;fontSize=8;" vertex="1" parent="Tn-plqf3XHTxCnsARwkG-59">
          <mxGeometry x="252.98196948682383" y="455" width="219.69486823855752" height="14.999999999999998" as="geometry" />
        </mxCell>
        <mxCell id="Tn-plqf3XHTxCnsARwkG-56" value="min step: 0.01; failed attempt count: 100; step coefficient: 0.9" style="text;html=1;align=center;verticalAlign=middle;whiteSpace=wrap;rounded=0;fontSize=8;" vertex="1" parent="Tn-plqf3XHTxCnsARwkG-59">
          <mxGeometry x="252.98196948682383" y="479.99999999999994" width="219.69486823855752" height="14.999999999999998" as="geometry" />
        </mxCell>
        <mxCell id="Tn-plqf3XHTxCnsARwkG-57" value="min step: 0.001; failed attempt count: 100; step coefficient: 0.9" style="text;html=1;align=center;verticalAlign=middle;whiteSpace=wrap;rounded=0;fontSize=8;" vertex="1" parent="Tn-plqf3XHTxCnsARwkG-59">
          <mxGeometry x="252.98196948682383" y="504.9999999999999" width="226.35228848821077" height="14.999999999999998" as="geometry" />
        </mxCell>
        <mxCell id="Tn-plqf3XHTxCnsARwkG-60" value="" style="group;fontSize=8;" vertex="1" connectable="0" parent="1">
          <mxGeometry x="40" y="550" width="480" height="520" as="geometry" />
        </mxCell>
        <mxCell id="Tn-plqf3XHTxCnsARwkG-97" style="edgeStyle=orthogonalEdgeStyle;rounded=0;orthogonalLoop=1;jettySize=auto;html=1;entryX=0;entryY=0.5;entryDx=0;entryDy=0;fontSize=8;" edge="1" parent="Tn-plqf3XHTxCnsARwkG-60" source="Tn-plqf3XHTxCnsARwkG-100" target="Tn-plqf3XHTxCnsARwkG-101">
          <mxGeometry relative="1" as="geometry">
            <Array as="points">
              <mxPoint x="213.03744798890423" y="462.4999999999999" />
            </Array>
          </mxGeometry>
        </mxCell>
        <mxCell id="Tn-plqf3XHTxCnsARwkG-98" style="edgeStyle=orthogonalEdgeStyle;rounded=0;orthogonalLoop=1;jettySize=auto;html=1;entryX=0;entryY=0.5;entryDx=0;entryDy=0;fontSize=8;" edge="1" parent="Tn-plqf3XHTxCnsARwkG-60" source="Tn-plqf3XHTxCnsARwkG-100" target="Tn-plqf3XHTxCnsARwkG-102">
          <mxGeometry relative="1" as="geometry">
            <Array as="points">
              <mxPoint x="213.03744798890423" y="487.5" />
            </Array>
          </mxGeometry>
        </mxCell>
        <mxCell id="Tn-plqf3XHTxCnsARwkG-99" style="edgeStyle=orthogonalEdgeStyle;rounded=0;orthogonalLoop=1;jettySize=auto;html=1;entryX=0;entryY=0.5;entryDx=0;entryDy=0;fontSize=8;" edge="1" parent="Tn-plqf3XHTxCnsARwkG-60" source="Tn-plqf3XHTxCnsARwkG-100" target="Tn-plqf3XHTxCnsARwkG-103">
          <mxGeometry relative="1" as="geometry">
            <Array as="points">
              <mxPoint x="213.03744798890423" y="512.4999999999999" />
            </Array>
          </mxGeometry>
        </mxCell>
        <mxCell id="Tn-plqf3XHTxCnsARwkG-100" value="start step: 0.5" style="text;html=1;align=center;verticalAlign=middle;whiteSpace=wrap;rounded=0;fontSize=8;" vertex="1" parent="Tn-plqf3XHTxCnsARwkG-60">
          <mxGeometry x="186.40776699029124" y="429.99999999999994" width="53.25936199722606" height="14.999999999999998" as="geometry" />
        </mxCell>
        <mxCell id="Tn-plqf3XHTxCnsARwkG-101" value="min step: 0.1; failed attempt count: 100; step coefficient: 0.9&amp;nbsp;" style="text;html=1;align=center;verticalAlign=middle;whiteSpace=wrap;rounded=0;fontSize=8;" vertex="1" parent="Tn-plqf3XHTxCnsARwkG-60">
          <mxGeometry x="252.98196948682383" y="455" width="219.69486823855752" height="14.999999999999998" as="geometry" />
        </mxCell>
        <mxCell id="Tn-plqf3XHTxCnsARwkG-102" value="min step: 0.01; failed attempt count: 100; step coefficient: 0.9" style="text;html=1;align=center;verticalAlign=middle;whiteSpace=wrap;rounded=0;fontSize=8;" vertex="1" parent="Tn-plqf3XHTxCnsARwkG-60">
          <mxGeometry x="252.98196948682383" y="479.99999999999994" width="219.69486823855752" height="14.999999999999998" as="geometry" />
        </mxCell>
        <mxCell id="Tn-plqf3XHTxCnsARwkG-103" value="min step: 0.001; failed attempt count: 100; step coefficient: 0.9" style="text;html=1;align=center;verticalAlign=middle;whiteSpace=wrap;rounded=0;fontSize=8;" vertex="1" parent="Tn-plqf3XHTxCnsARwkG-60">
          <mxGeometry x="252.98196948682383" y="504.9999999999999" width="226.35228848821077" height="14.999999999999998" as="geometry" />
        </mxCell>
        <mxCell id="Tn-plqf3XHTxCnsARwkG-104" value="" style="group" vertex="1" connectable="0" parent="1">
          <mxGeometry x="40" y="540" width="479.9999999999999" height="420" as="geometry" />
        </mxCell>
        <mxCell id="Tn-plqf3XHTxCnsARwkG-63" style="edgeStyle=orthogonalEdgeStyle;rounded=0;orthogonalLoop=1;jettySize=auto;html=1;entryX=0;entryY=0.5;entryDx=0;entryDy=0;fontSize=8;" edge="1" parent="Tn-plqf3XHTxCnsARwkG-104" source="Tn-plqf3XHTxCnsARwkG-67" target="Tn-plqf3XHTxCnsARwkG-69">
          <mxGeometry relative="1" as="geometry">
            <Array as="points">
              <mxPoint x="79.88904299583909" y="52.49999999999999" />
            </Array>
          </mxGeometry>
        </mxCell>
        <mxCell id="Tn-plqf3XHTxCnsARwkG-64" style="edgeStyle=orthogonalEdgeStyle;rounded=0;orthogonalLoop=1;jettySize=auto;html=1;entryX=0;entryY=0.5;entryDx=0;entryDy=0;fontSize=8;" edge="1" parent="Tn-plqf3XHTxCnsARwkG-104" source="Tn-plqf3XHTxCnsARwkG-67" target="Tn-plqf3XHTxCnsARwkG-78">
          <mxGeometry relative="1" as="geometry">
            <Array as="points">
              <mxPoint x="79.88904299583909" y="171.49999999999997" />
            </Array>
          </mxGeometry>
        </mxCell>
        <mxCell id="Tn-plqf3XHTxCnsARwkG-65" style="edgeStyle=orthogonalEdgeStyle;rounded=0;orthogonalLoop=1;jettySize=auto;html=1;entryX=0;entryY=0.5;entryDx=0;entryDy=0;fontSize=8;" edge="1" parent="Tn-plqf3XHTxCnsARwkG-104" source="Tn-plqf3XHTxCnsARwkG-67" target="Tn-plqf3XHTxCnsARwkG-87">
          <mxGeometry relative="1" as="geometry">
            <Array as="points">
              <mxPoint x="79.88904299583909" y="292.49999999999994" />
            </Array>
          </mxGeometry>
        </mxCell>
        <mxCell id="Tn-plqf3XHTxCnsARwkG-66" style="edgeStyle=orthogonalEdgeStyle;rounded=0;orthogonalLoop=1;jettySize=auto;html=1;entryX=0;entryY=0.5;entryDx=0;entryDy=0;fontSize=8;" edge="1" parent="Tn-plqf3XHTxCnsARwkG-104" source="Tn-plqf3XHTxCnsARwkG-67" target="Tn-plqf3XHTxCnsARwkG-96">
          <mxGeometry relative="1" as="geometry">
            <Array as="points">
              <mxPoint x="79.88904299583909" y="412.49999999999994" />
            </Array>
          </mxGeometry>
        </mxCell>
        <mxCell id="Tn-plqf3XHTxCnsARwkG-67" value="seed 2: 89274" style="text;html=1;align=center;verticalAlign=middle;whiteSpace=wrap;rounded=0;fontSize=8;" vertex="1" parent="Tn-plqf3XHTxCnsARwkG-104">
          <mxGeometry x="53.25936199722606" y="19.999999999999996" width="53.25936199722606" height="14.999999999999998" as="geometry" />
        </mxCell>
        <mxCell id="Tn-plqf3XHTxCnsARwkG-68" style="edgeStyle=orthogonalEdgeStyle;rounded=0;orthogonalLoop=1;jettySize=auto;html=1;entryX=0;entryY=0.5;entryDx=0;entryDy=0;fontSize=8;" edge="1" parent="Tn-plqf3XHTxCnsARwkG-104" source="Tn-plqf3XHTxCnsARwkG-69" target="Tn-plqf3XHTxCnsARwkG-73">
          <mxGeometry relative="1" as="geometry">
            <Array as="points">
              <mxPoint x="146.4632454923717" y="77.5" />
            </Array>
          </mxGeometry>
        </mxCell>
        <mxCell id="Tn-plqf3XHTxCnsARwkG-69" value="segment count: 5" style="text;html=1;align=center;verticalAlign=middle;whiteSpace=wrap;rounded=0;fontSize=8;" vertex="1" parent="Tn-plqf3XHTxCnsARwkG-104">
          <mxGeometry x="113.17614424410539" y="44.99999999999999" width="66.57420249653259" height="14.999999999999998" as="geometry" />
        </mxCell>
        <mxCell id="Tn-plqf3XHTxCnsARwkG-70" style="edgeStyle=orthogonalEdgeStyle;rounded=0;orthogonalLoop=1;jettySize=auto;html=1;entryX=0;entryY=0.5;entryDx=0;entryDy=0;fontSize=8;" edge="1" parent="Tn-plqf3XHTxCnsARwkG-104" source="Tn-plqf3XHTxCnsARwkG-73" target="Tn-plqf3XHTxCnsARwkG-74">
          <mxGeometry relative="1" as="geometry">
            <Array as="points">
              <mxPoint x="213.03744798890423" y="102.5" />
            </Array>
          </mxGeometry>
        </mxCell>
        <mxCell id="Tn-plqf3XHTxCnsARwkG-71" style="edgeStyle=orthogonalEdgeStyle;rounded=0;orthogonalLoop=1;jettySize=auto;html=1;entryX=0;entryY=0.5;entryDx=0;entryDy=0;fontSize=8;" edge="1" parent="Tn-plqf3XHTxCnsARwkG-104" source="Tn-plqf3XHTxCnsARwkG-73" target="Tn-plqf3XHTxCnsARwkG-75">
          <mxGeometry relative="1" as="geometry">
            <Array as="points">
              <mxPoint x="213.03744798890423" y="127.5" />
            </Array>
          </mxGeometry>
        </mxCell>
        <mxCell id="Tn-plqf3XHTxCnsARwkG-72" style="edgeStyle=orthogonalEdgeStyle;rounded=0;orthogonalLoop=1;jettySize=auto;html=1;entryX=0;entryY=0.5;entryDx=0;entryDy=0;fontSize=8;" edge="1" parent="Tn-plqf3XHTxCnsARwkG-104" source="Tn-plqf3XHTxCnsARwkG-73" target="Tn-plqf3XHTxCnsARwkG-76">
          <mxGeometry relative="1" as="geometry">
            <Array as="points">
              <mxPoint x="213.03744798890423" y="152.49999999999997" />
            </Array>
          </mxGeometry>
        </mxCell>
        <mxCell id="Tn-plqf3XHTxCnsARwkG-73" value="start step: 0.5" style="text;html=1;align=center;verticalAlign=middle;whiteSpace=wrap;rounded=0;fontSize=8;" vertex="1" parent="Tn-plqf3XHTxCnsARwkG-104">
          <mxGeometry x="186.40776699029124" y="69.99999999999999" width="53.25936199722606" height="14.999999999999998" as="geometry" />
        </mxCell>
        <mxCell id="Tn-plqf3XHTxCnsARwkG-74" value="min step: 0.1; failed attempt count: 100; step coefficient: 0.9&amp;nbsp;" style="text;html=1;align=center;verticalAlign=middle;whiteSpace=wrap;rounded=0;fontSize=8;" vertex="1" parent="Tn-plqf3XHTxCnsARwkG-104">
          <mxGeometry x="252.98196948682383" y="94.99999999999999" width="219.69486823855752" height="14.999999999999998" as="geometry" />
        </mxCell>
        <mxCell id="Tn-plqf3XHTxCnsARwkG-75" value="min step: 0.01; failed attempt count: 100; step coefficient: 0.9" style="text;html=1;align=center;verticalAlign=middle;whiteSpace=wrap;rounded=0;fontSize=8;" vertex="1" parent="Tn-plqf3XHTxCnsARwkG-104">
          <mxGeometry x="252.98196948682383" y="119.99999999999999" width="219.69486823855752" height="14.999999999999998" as="geometry" />
        </mxCell>
        <mxCell id="Tn-plqf3XHTxCnsARwkG-76" value="min step: 0.001; failed attempt count: 100; step coefficient: 0.9" style="text;html=1;align=center;verticalAlign=middle;whiteSpace=wrap;rounded=0;fontSize=8;" vertex="1" parent="Tn-plqf3XHTxCnsARwkG-104">
          <mxGeometry x="252.98196948682383" y="144.99999999999997" width="226.35228848821077" height="14.999999999999998" as="geometry" />
        </mxCell>
        <mxCell id="Tn-plqf3XHTxCnsARwkG-77" style="edgeStyle=orthogonalEdgeStyle;rounded=0;orthogonalLoop=1;jettySize=auto;html=1;entryX=0;entryY=0.5;entryDx=0;entryDy=0;fontSize=8;" edge="1" parent="Tn-plqf3XHTxCnsARwkG-104" source="Tn-plqf3XHTxCnsARwkG-78" target="Tn-plqf3XHTxCnsARwkG-82">
          <mxGeometry relative="1" as="geometry">
            <Array as="points">
              <mxPoint x="147.128987517337" y="196.49999999999997" />
            </Array>
          </mxGeometry>
        </mxCell>
        <mxCell id="Tn-plqf3XHTxCnsARwkG-78" value="segment count: 10" style="text;html=1;align=center;verticalAlign=middle;whiteSpace=wrap;rounded=0;fontSize=8;" vertex="1" parent="Tn-plqf3XHTxCnsARwkG-104">
          <mxGeometry x="113.84188626907073" y="164" width="72.56588072122052" height="14.999999999999998" as="geometry" />
        </mxCell>
        <mxCell id="Tn-plqf3XHTxCnsARwkG-79" style="edgeStyle=orthogonalEdgeStyle;rounded=0;orthogonalLoop=1;jettySize=auto;html=1;entryX=0;entryY=0.5;entryDx=0;entryDy=0;fontSize=8;" edge="1" parent="Tn-plqf3XHTxCnsARwkG-104" source="Tn-plqf3XHTxCnsARwkG-82" target="Tn-plqf3XHTxCnsARwkG-83">
          <mxGeometry relative="1" as="geometry">
            <Array as="points">
              <mxPoint x="213.7031900138696" y="221.49999999999997" />
            </Array>
          </mxGeometry>
        </mxCell>
        <mxCell id="Tn-plqf3XHTxCnsARwkG-80" style="edgeStyle=orthogonalEdgeStyle;rounded=0;orthogonalLoop=1;jettySize=auto;html=1;entryX=0;entryY=0.5;entryDx=0;entryDy=0;fontSize=8;" edge="1" parent="Tn-plqf3XHTxCnsARwkG-104" source="Tn-plqf3XHTxCnsARwkG-82" target="Tn-plqf3XHTxCnsARwkG-84">
          <mxGeometry relative="1" as="geometry">
            <Array as="points">
              <mxPoint x="213.7031900138696" y="246.49999999999997" />
            </Array>
          </mxGeometry>
        </mxCell>
        <mxCell id="Tn-plqf3XHTxCnsARwkG-81" style="edgeStyle=orthogonalEdgeStyle;rounded=0;orthogonalLoop=1;jettySize=auto;html=1;entryX=0;entryY=0.5;entryDx=0;entryDy=0;fontSize=8;" edge="1" parent="Tn-plqf3XHTxCnsARwkG-104" source="Tn-plqf3XHTxCnsARwkG-82" target="Tn-plqf3XHTxCnsARwkG-85">
          <mxGeometry relative="1" as="geometry">
            <Array as="points">
              <mxPoint x="213.7031900138696" y="271.49999999999994" />
            </Array>
          </mxGeometry>
        </mxCell>
        <mxCell id="Tn-plqf3XHTxCnsARwkG-82" value="start step: 0.5" style="text;html=1;align=center;verticalAlign=middle;whiteSpace=wrap;rounded=0;fontSize=8;" vertex="1" parent="Tn-plqf3XHTxCnsARwkG-104">
          <mxGeometry x="187.07350901525655" y="188.99999999999997" width="53.25936199722606" height="14.999999999999998" as="geometry" />
        </mxCell>
        <mxCell id="Tn-plqf3XHTxCnsARwkG-83" value="min step: 0.1; failed attempt count: 100; step coefficient: 0.9&amp;nbsp;" style="text;html=1;align=center;verticalAlign=middle;whiteSpace=wrap;rounded=0;fontSize=8;" vertex="1" parent="Tn-plqf3XHTxCnsARwkG-104">
          <mxGeometry x="253.64771151178914" y="213.99999999999997" width="219.69486823855752" height="14.999999999999998" as="geometry" />
        </mxCell>
        <mxCell id="Tn-plqf3XHTxCnsARwkG-84" value="min step: 0.01; failed attempt count: 100; step coefficient: 0.9" style="text;html=1;align=center;verticalAlign=middle;whiteSpace=wrap;rounded=0;fontSize=8;" vertex="1" parent="Tn-plqf3XHTxCnsARwkG-104">
          <mxGeometry x="253.64771151178914" y="238.99999999999994" width="219.69486823855752" height="14.999999999999998" as="geometry" />
        </mxCell>
        <mxCell id="Tn-plqf3XHTxCnsARwkG-85" value="min step: 0.001; failed attempt count: 100; step coefficient: 0.9" style="text;html=1;align=center;verticalAlign=middle;whiteSpace=wrap;rounded=0;fontSize=8;" vertex="1" parent="Tn-plqf3XHTxCnsARwkG-104">
          <mxGeometry x="253.64771151178914" y="263.99999999999994" width="226.35228848821077" height="14.999999999999998" as="geometry" />
        </mxCell>
        <mxCell id="Tn-plqf3XHTxCnsARwkG-86" style="edgeStyle=orthogonalEdgeStyle;rounded=0;orthogonalLoop=1;jettySize=auto;html=1;entryX=0;entryY=0.5;entryDx=0;entryDy=0;fontSize=8;" edge="1" parent="Tn-plqf3XHTxCnsARwkG-104" source="Tn-plqf3XHTxCnsARwkG-87" target="Tn-plqf3XHTxCnsARwkG-91">
          <mxGeometry relative="1" as="geometry">
            <Array as="points">
              <mxPoint x="147.128987517337" y="317.5" />
            </Array>
          </mxGeometry>
        </mxCell>
        <mxCell id="Tn-plqf3XHTxCnsARwkG-87" value="segment count: 16" style="text;html=1;align=center;verticalAlign=middle;whiteSpace=wrap;rounded=0;fontSize=8;" vertex="1" parent="Tn-plqf3XHTxCnsARwkG-104">
          <mxGeometry x="113.84188626907073" y="284.99999999999994" width="72.56588072122052" height="14.999999999999998" as="geometry" />
        </mxCell>
        <mxCell id="Tn-plqf3XHTxCnsARwkG-88" style="edgeStyle=orthogonalEdgeStyle;rounded=0;orthogonalLoop=1;jettySize=auto;html=1;entryX=0;entryY=0.5;entryDx=0;entryDy=0;fontSize=8;" edge="1" parent="Tn-plqf3XHTxCnsARwkG-104" source="Tn-plqf3XHTxCnsARwkG-91" target="Tn-plqf3XHTxCnsARwkG-92">
          <mxGeometry relative="1" as="geometry">
            <Array as="points">
              <mxPoint x="213.7031900138696" y="342.5" />
            </Array>
          </mxGeometry>
        </mxCell>
        <mxCell id="Tn-plqf3XHTxCnsARwkG-89" style="edgeStyle=orthogonalEdgeStyle;rounded=0;orthogonalLoop=1;jettySize=auto;html=1;entryX=0;entryY=0.5;entryDx=0;entryDy=0;fontSize=8;" edge="1" parent="Tn-plqf3XHTxCnsARwkG-104" source="Tn-plqf3XHTxCnsARwkG-91" target="Tn-plqf3XHTxCnsARwkG-93">
          <mxGeometry relative="1" as="geometry">
            <Array as="points">
              <mxPoint x="213.7031900138696" y="367.49999999999994" />
            </Array>
          </mxGeometry>
        </mxCell>
        <mxCell id="Tn-plqf3XHTxCnsARwkG-90" style="edgeStyle=orthogonalEdgeStyle;rounded=0;orthogonalLoop=1;jettySize=auto;html=1;entryX=0;entryY=0.5;entryDx=0;entryDy=0;fontSize=8;" edge="1" parent="Tn-plqf3XHTxCnsARwkG-104" source="Tn-plqf3XHTxCnsARwkG-91" target="Tn-plqf3XHTxCnsARwkG-94">
          <mxGeometry relative="1" as="geometry">
            <Array as="points">
              <mxPoint x="213.7031900138696" y="392.49999999999994" />
            </Array>
          </mxGeometry>
        </mxCell>
        <mxCell id="Tn-plqf3XHTxCnsARwkG-91" value="start step: 0.5" style="text;html=1;align=center;verticalAlign=middle;whiteSpace=wrap;rounded=0;fontSize=8;" vertex="1" parent="Tn-plqf3XHTxCnsARwkG-104">
          <mxGeometry x="187.07350901525655" y="310" width="53.25936199722606" height="14.999999999999998" as="geometry" />
        </mxCell>
        <mxCell id="Tn-plqf3XHTxCnsARwkG-92" value="min step: 0.1; failed attempt count: 100; step coefficient: 0.9&amp;nbsp;" style="text;html=1;align=center;verticalAlign=middle;whiteSpace=wrap;rounded=0;fontSize=8;" vertex="1" parent="Tn-plqf3XHTxCnsARwkG-104">
          <mxGeometry x="253.64771151178914" y="334.99999999999994" width="219.69486823855752" height="14.999999999999998" as="geometry" />
        </mxCell>
        <mxCell id="Tn-plqf3XHTxCnsARwkG-93" value="min step: 0.01; failed attempt count: 100; step coefficient: 0.9" style="text;html=1;align=center;verticalAlign=middle;whiteSpace=wrap;rounded=0;fontSize=8;" vertex="1" parent="Tn-plqf3XHTxCnsARwkG-104">
          <mxGeometry x="253.64771151178914" y="359.99999999999994" width="219.69486823855752" height="14.999999999999998" as="geometry" />
        </mxCell>
        <mxCell id="Tn-plqf3XHTxCnsARwkG-94" value="min step: 0.001; failed attempt count: 100; step coefficient: 0.9" style="text;html=1;align=center;verticalAlign=middle;whiteSpace=wrap;rounded=0;fontSize=8;" vertex="1" parent="Tn-plqf3XHTxCnsARwkG-104">
          <mxGeometry x="253.64771151178914" y="384.99999999999994" width="226.35228848821077" height="14.999999999999998" as="geometry" />
        </mxCell>
        <mxCell id="Tn-plqf3XHTxCnsARwkG-96" value="segment count: 32" style="text;html=1;align=center;verticalAlign=middle;whiteSpace=wrap;rounded=0;fontSize=8;" vertex="1" parent="Tn-plqf3XHTxCnsARwkG-104">
          <mxGeometry x="113.17614424410539" y="405" width="72.56588072122052" height="14.999999999999998" as="geometry" />
        </mxCell>
        <mxCell id="Tn-plqf3XHTxCnsARwkG-95" style="edgeStyle=orthogonalEdgeStyle;rounded=0;orthogonalLoop=1;jettySize=auto;html=1;entryX=0;entryY=0.5;entryDx=0;entryDy=0;fontSize=8;" edge="1" parent="1" source="Tn-plqf3XHTxCnsARwkG-96" target="Tn-plqf3XHTxCnsARwkG-100">
          <mxGeometry relative="1" as="geometry">
            <Array as="points">
              <mxPoint x="186.4632454923717" y="987.5" />
            </Array>
          </mxGeometry>
        </mxCell>
        <mxCell id="Tn-plqf3XHTxCnsARwkG-105" style="edgeStyle=orthogonalEdgeStyle;rounded=0;orthogonalLoop=1;jettySize=auto;html=1;entryX=0;entryY=0.5;entryDx=0;entryDy=0;" edge="1" parent="1" source="Tn-plqf3XHTxCnsARwkG-1" target="Tn-plqf3XHTxCnsARwkG-67">
          <mxGeometry relative="1" as="geometry">
            <Array as="points">
              <mxPoint x="50" y="567" />
            </Array>
          </mxGeometry>
        </mxCell>
      </root>
    </mxGraphModel>
  </diagram>
</mxfile>
